<?xml version="1.0" encoding="utf-8"?>
<!-- Generator: Adobe Illustrator 17.0.0, SVG Export Plug-In . SVG Version: 6.00 Build 0)  -->
<!DOCTYPE svg PUBLIC "-//W3C//DTD SVG 1.1//EN" "http://www.w3.org/Graphics/SVG/1.1/DTD/svg11.dtd">
<svg version="1.1" id="Layer_1" xmlns="http://www.w3.org/2000/svg" xmlns:xlink="http://www.w3.org/1999/xlink" x="0px" y="0px"
	 width="86.326px" height="57.875px" viewBox="11.632 10.205 86.326 57.875" enable-background="new 11.632 10.205 86.326 57.875"
	 xml:space="preserve">
<g>
	<path fill="#030303" d="M96.458,10.205H27.192c-0.829,0-1.5,0.672-1.5,1.5v14.958h-9.06c-0.104,0-0.205,0.01-0.303,0.031
		c-2.614,0.16-4.697,2.316-4.697,4.969v18.708c0,0.828,0.671,1.5,1.5,1.5h5.5V63.08c0,2.653,2.084,4.81,4.697,4.969
		c0.098,0.02,0.199,0.031,0.303,0.031h65.706c4.753,0,8.62-3.516,8.62-7.837V11.705C97.958,10.877,97.287,10.205,96.458,10.205z
		 M14.633,48.871V31.663c0-1.103,0.897-2,2-2s2,0.897,2,2v17.208C18.633,48.871,14.633,48.871,14.633,48.871z M21.633,50.371V31.663
		c0-0.35-0.038-0.691-0.106-1.021c-0.024-0.116-0.072-0.221-0.104-0.334c-0.059-0.209-0.113-0.42-0.198-0.617
		c-0.004-0.009-0.005-0.02-0.009-0.029h4.417v18.079V63.08c0,1.103-0.897,2-2,2s-2-0.897-2-2
		C21.633,63.08,21.633,50.371,21.633,50.371z M94.958,60.243c0,2.667-2.521,4.837-5.62,4.837H28.215
		c0.004-0.009,0.005-0.02,0.009-0.029c0.085-0.197,0.139-0.408,0.198-0.617c0.032-0.113,0.08-0.218,0.104-0.334
		c0.069-0.33,0.106-0.671,0.106-1.021v-15.2l0.035-0.188c0.017-0.09,0.025-0.181,0.025-0.272V13.205h66.266V60.243z"/>
	<path fill="#030303" d="M34.251,41.441h14.223c0.829,0,1.5-0.672,1.5-1.5V18.726c0-0.828-0.671-1.5-1.5-1.5H34.251
		c-0.829,0-1.5,0.672-1.5,1.5v21.216C32.751,40.77,33.423,41.441,34.251,41.441z M35.751,20.226h11.223v18.216H35.751V20.226z"/>
	<path fill="#030303" d="M54.699,61.06h14.223c0.829,0,1.5-0.672,1.5-1.5V38.344c0-0.828-0.671-1.5-1.5-1.5H54.699
		c-0.829,0-1.5,0.672-1.5,1.5V59.56C53.199,60.388,53.87,61.06,54.699,61.06z M56.199,39.844h11.223V58.06H56.199V39.844z"/>
	<path fill="#030303" d="M75.147,41.441H89.37c0.829,0,1.5-0.672,1.5-1.5V18.726c0-0.828-0.671-1.5-1.5-1.5H75.147
		c-0.829,0-1.5,0.672-1.5,1.5v21.216C73.647,40.77,74.318,41.441,75.147,41.441z M76.647,20.226H87.87v18.216H76.647V20.226z"/>
	<path fill="#030303" d="M54.699,33.619h14.223c0.829,0,1.5-0.672,1.5-1.5V18.726c0-0.828-0.671-1.5-1.5-1.5H54.699
		c-0.829,0-1.5,0.672-1.5,1.5V32.12C53.199,32.947,53.87,33.619,54.699,33.619z M56.199,20.226h11.223V30.62H56.199V20.226z"/>
	<path fill="#030303" d="M75.147,61.06H89.37c0.829,0,1.5-0.672,1.5-1.5V46.166c0-0.828-0.671-1.5-1.5-1.5H75.147
		c-0.829,0-1.5,0.672-1.5,1.5V59.56C73.647,60.388,74.318,61.06,75.147,61.06z M76.647,47.666H87.87V58.06H76.647V47.666z"/>
	<path fill="#030303" d="M34.251,61.06h14.223c0.829,0,1.5-0.672,1.5-1.5V46.166c0-0.828-0.671-1.5-1.5-1.5H34.251
		c-0.829,0-1.5,0.672-1.5,1.5V59.56C32.751,60.388,33.423,61.06,34.251,61.06z M35.751,47.666h11.223V58.06H35.751V47.666z"/>
</g>
</svg>
