<?xml version="1.0" encoding="iso-8859-1"?>
<!-- Generator: Adobe Illustrator 17.0.0, SVG Export Plug-In . SVG Version: 6.00 Build 0)  -->
<!DOCTYPE svg PUBLIC "-//W3C//DTD SVG 1.1//EN" "http://www.w3.org/Graphics/SVG/1.1/DTD/svg11.dtd">
<svg version="1.1" id="Layer_1" xmlns="http://www.w3.org/2000/svg" xmlns:xlink="http://www.w3.org/1999/xlink" x="0px" y="0px"
	 width="13.488px" height="10.047px" viewBox="0 0 13.488 10.047" style="enable-background:new 0 0 13.488 10.047;"
	 xml:space="preserve">
<g>
	<g>
		<path d="M12.013,0H3.705C2.89,0,2.23,0.659,2.23,1.473v0.001H1.479c-0.512,0-0.962,0.261-1.227,0.657C0.093,2.366,0,2.65,0,2.955
			V7.45c0,1.549,0.716,2.597,2.46,2.597h9.554c0.815,0,1.474-0.66,1.474-1.473V1.473C13.487,0.659,12.828,0,12.013,0z M2.23,3.613
			H1.624v0.653H2.23v0.861H1.624V5.78H2.23v0.86H1.624v0.654H2.23v0.482c0,0.351-0.285,0.637-0.637,0.637
			c-0.351,0-0.636-0.286-0.636-0.637V2.901c0.048-0.214,0.239-0.375,0.469-0.375H2.23V3.613z M12.548,8.079h-0.002
			c0,0.589-0.478,1.067-1.069,1.067l-0.001,0.003H2.468c0.568-0.025,1.021-0.491,1.021-1.065l0.002-6.552
			c0-0.265,0.216-0.48,0.481-0.48h8.096c0.265,0,0.48,0.215,0.48,0.48V8.079z M7.542,1.983H4.454v4.059h3.088V1.983z M8.512,2.583
			h3.087V1.961H8.512V2.583z M8.512,4.317h3.087V3.695H8.512V4.317z M8.512,6.05h3.087V5.428H8.512V6.05z M4.441,7.783h7.158V7.161
			H4.441V7.783z"/>
	</g>
</g>
</svg>
